<svg width="298" height="285" viewBox="0 0 298 285" fill="none" xmlns="http://www.w3.org/2000/svg" xmlns:xlink="http://www.w3.org/2000/svg">
<path d="M157.346 40.1421L182.302 114.76H263.063L197.726 160.877L222.683 235.495L157.346 189.378L92.0082 235.495L116.965 160.877L51.6273 114.76H132.389L157.346 40.1421Z" fill="transparent"/>
<path d="M147.348 255.707L129.395 179.326L48.9403 172.699L118.299 132.119L100.345 55.7373L161.164 107.039L230.522 66.4593L198.753 138.746L259.572 190.048L179.118 183.421L147.348 255.707Z" fill="transparent"/>
<path d="M43.0759 138.719L124.209 121.816L131.248 46.074L174.353 111.37L255.485 94.4679L200.993 151.725L244.098 217.021L167.314 187.112L112.82 244.37L119.859 168.628L43.0759 138.719Z" fill="transparent"/>
<path d="M76.2359 71.7711L149.928 107.921L207.035 54.1581L195.473 130.262L269.165 166.412L188.327 177.297L176.764 253.401L138.366 184.025L57.5272 194.91L114.634 141.148L76.2359 71.7711Z" fill="transparent"/>
<path d="M196.578 249.607L146.017 187.524L70.1263 213.528L114.769 149.155L64.2093 87.0726L142.361 109.37L187.004 44.9968L190.66 123.151L268.813 145.448L192.92 171.452L196.578 249.607Z" fill="transparent"/>

<!-- <circle fill="purple"> 
    <animateMotion dur="27s" repeatCount="indefinite">
        <mpath xlink:href="#path"/>
    </animateMotion>
</circle> -->

<!-- <circle r="20" cx="150" fill="purple"/> -->

<path id="path" d="M196.578 249.607L146.017 187.524L70.1263 213.528L114.769 149.155L64.2093 87.0726L142.361 109.37L187.004 44.9968L190.66 123.151L268.813 145.448L192.92 171.452L196.578 249.607Z" fill="rgb(255, 0, 255)">
    <animate 
        attributeName="d"
        dur="20s"
        repeatCount="indefinite"
        values="
            M157.346 40.1421L182.302 114.76H263.063L197.726 160.877L222.683 235.495L157.346 189.378L92.0082 235.495L116.965 160.877L51.6273 114.76H132.389L157.346 40.1421Z;
            M147.348 255.707L129.395 179.326L48.9403 172.699L118.299 132.119L100.345 55.7373L161.164 107.039L230.522 66.4593L198.753 138.746L259.572 190.048L179.118 183.421L147.348 255.707Z;
            M43.0759 138.719L124.209 121.816L131.248 46.074L174.353 111.37L255.485 94.4679L200.993 151.725L244.098 217.021L167.314 187.112L112.82 244.37L119.859 168.628L43.0759 138.719Z;
            M76.2359 71.7711L149.928 107.921L207.035 54.1581L195.473 130.262L269.165 166.412L188.327 177.297L176.764 253.401L138.366 184.025L57.5272 194.91L114.634 141.148L76.2359 71.7711Z;
            M196.578 249.607L146.017 187.524L70.1263 213.528L114.769 149.155L64.2093 87.0726L142.361 109.37L187.004 44.9968L190.66 123.151L268.813 145.448L192.92 171.452L196.578 249.607Z;
            M196.578 249.607L146.017 187.524L70.1263 213.528L114.769 149.155L64.2093 87.0726L142.361 109.37L187.004 44.9968L190.66 123.151L268.813 145.448L192.92 171.452L196.578 249.607Z;
        "
    />
</path>
</svg>