<?xml version="1.0" encoding="UTF-8" standalone="no"?>
<!DOCTYPE svg PUBLIC "-//W3C//DTD SVG 1.1//EN" "http://www.w3.org/Graphics/SVG/1.1/DTD/svg11.dtd">
<svg version="1.1" xmlns="http://www.w3.org/2000/svg" xmlns:xlink="http://www.w3.org/1999/xlink" preserveAspectRatio="xMidYMid meet" viewBox="0 0 50 50" width="50" height="50"><defs><path d="M1.95 25.29C1.78 25.16 1.6 25.11 1.41 25.11C1.22 25.1 1.04 25.16 0.86 25.28C0.69 25.4 0.54 25.58 0.41 25.79C0.28 26 0.17 26.25 0.1 26.53C0.04 26.81 0 27.11 0 27.4C0 27.7 0.03 28 0.1 28.27C0.18 28.55 0.28 28.8 0.41 29.01C0.67 29.45 1.03 29.7 1.41 29.68C1.79 29.69 2.15 29.44 2.41 29.01C2.55 28.81 2.65 28.56 2.72 28.28C2.8 28 2.83 27.71 2.83 27.41C2.83 27.11 2.8 26.81 2.72 26.54C2.65 26.25 2.54 26 2.41 25.8C2.28 25.58 2.12 25.41 1.95 25.29ZM19.15 20.59C19.13 22.03 19.17 23.47 19.28 24.9C19.27 24.9 19.23 24.9 19.23 24.9C19.12 24.55 18.87 23.9 18.49 22.94C17.88 21.41 14.84 13.76 9.37 0L6.6 0L6.6 29.29L8.73 29.29C8.73 16.58 8.73 9.53 8.73 8.11C8.75 6.78 8.72 5.44 8.63 4.1C8.64 4.1 8.7 4.1 8.71 4.1C8.86 4.74 9.06 5.35 9.29 5.93C9.91 7.49 13.04 15.27 18.66 29.29L21.28 29.29L21.28 0L19.15 0C19.15 10.98 19.15 17.85 19.15 20.59ZM35.7 26.07L28.18 26.07L28.18 15.92L34.76 15.92L34.76 12.83L28.18 12.83L28.18 3.1L35.24 3.1L35.24 0L26 0L26 29.29L35.69 29.29L35.7 26.07ZM37.33 0L37.33 3.1L42.57 3.1L42.57 29.29L44.7 29.29L44.7 3.1L50 3.1L50 0L37.33 0ZM15.07 38.09C14.66 38.79 14.34 39.61 14.13 40.51C13.92 41.41 13.83 42.37 13.86 43.32C13.82 45.09 14.2 46.82 14.94 48.14C15.3 48.77 15.75 49.25 16.25 49.57C16.74 49.89 17.28 50.03 17.81 49.99C18.61 50.04 19.4 49.77 20.13 49.2C20.13 49.05 20.14 47.86 20.14 47.71C19.47 48.33 18.72 48.64 17.95 48.61C17.54 48.63 17.12 48.52 16.74 48.27C16.36 48.02 16.02 47.63 15.74 47.14C15.15 46.05 14.85 44.64 14.9 43.21C14.85 41.69 15.18 40.2 15.8 39.06C16.1 38.54 16.46 38.13 16.86 37.84C17.27 37.57 17.71 37.43 18.15 37.45C18.85 37.43 19.54 37.71 20.15 38.25C20.15 38.09 20.15 36.81 20.15 36.64C19.51 36.23 18.83 36.04 18.15 36.08C17.58 36.07 17 36.23 16.48 36.57C15.94 36.91 15.46 37.43 15.07 38.09ZM24.36 39.82C23.95 39.79 23.54 39.9 23.16 40.14C22.77 40.38 22.42 40.73 22.13 41.19C21.84 41.7 21.62 42.3 21.48 42.95C21.33 43.61 21.27 44.29 21.3 44.98C21.26 46.3 21.54 47.59 22.09 48.57C22.36 49.04 22.69 49.41 23.06 49.66C23.42 49.9 23.82 50.02 24.22 50C24.62 50.02 25.02 49.89 25.4 49.64C25.78 49.39 26.11 49.02 26.39 48.54C26.95 47.52 27.24 46.2 27.2 44.84C27.24 43.5 26.98 42.18 26.45 41.16C25.91 40.25 25.14 39.76 24.36 39.82ZM24.29 48.71C24.01 48.73 23.74 48.64 23.49 48.48C23.24 48.3 23.01 48.05 22.83 47.71C22.44 46.95 22.25 45.99 22.29 45.02C22.25 44.01 22.44 43.02 22.83 42.22C23.01 41.89 23.23 41.63 23.48 41.45C23.74 41.27 24.01 41.19 24.28 41.21C24.56 41.18 24.82 41.27 25.07 41.44C25.32 41.61 25.54 41.88 25.72 42.21C26.08 43.01 26.26 44 26.22 44.99C26.26 45.96 26.08 46.95 25.72 47.74C25.36 48.4 24.83 48.76 24.29 48.71ZM29.72 42.14C29.72 42 29.72 41.33 29.72 40.13L28.72 40.13L28.72 49.77L29.72 49.77C29.72 46.82 29.72 45.18 29.72 44.85C29.69 43.96 29.84 43.07 30.13 42.31C30.24 42.04 30.38 41.8 30.56 41.64C30.74 41.48 30.93 41.39 31.13 41.38C31.39 41.35 31.64 41.46 31.86 41.69C31.86 41.53 31.86 40.26 31.86 40.1C31.68 40 31.48 39.96 31.29 39.97C30.95 39.97 30.62 40.16 30.35 40.53C30.05 40.96 29.83 41.52 29.72 42.14ZM37.71 44.51C37.76 43.29 37.53 42.08 37.07 41.11C36.84 40.7 36.56 40.37 36.25 40.16C35.93 39.95 35.59 39.85 35.25 39.88C34.88 39.86 34.5 39.98 34.15 40.23C33.81 40.47 33.5 40.84 33.25 41.3C32.71 42.31 32.43 43.62 32.46 44.96C32.41 46.29 32.67 47.61 33.19 48.65C33.44 49.09 33.76 49.44 34.1 49.67C34.44 49.9 34.82 50 35.19 49.97C35.93 50.03 36.66 49.71 37.28 49.05C37.28 48.91 37.28 47.75 37.28 47.61C36.75 48.29 36.1 48.67 35.42 48.68C35.16 48.71 34.9 48.64 34.65 48.49C34.41 48.34 34.18 48.11 34 47.81C33.64 47.12 33.46 46.23 33.49 45.34C33.77 45.34 35.18 45.34 37.72 45.34C37.72 44.9 37.71 44.62 37.71 44.51ZM33.48 44.06C33.54 43.3 33.74 42.58 34.07 42.02C34.37 41.51 34.79 41.22 35.22 41.23C35.43 41.22 35.64 41.27 35.83 41.4C36.02 41.53 36.19 41.72 36.32 41.97C36.6 42.57 36.74 43.3 36.72 44.04C36.08 44.05 34.13 44.06 33.48 44.06Z" id="a7uvDkWKP"></path></defs><g><g><g><use xlink:href="#a7uvDkWKP" opacity="1" fill="#621ee5" fill-opacity="1"></use><g><use xlink:href="#a7uvDkWKP" opacity="1" fill-opacity="0" stroke="#000000" stroke-width="1" stroke-opacity="0"></use></g></g></g></g></svg>